<svg xmlns="http://www.w3.org/2000/svg" width="45.622" height="39.992" viewBox="0 0 45.622 39.992">
  <path id="Icon_map-food" data-name="Icon map-food" d="M46.241,13.5,42.5,42.817H29.869L26.144,13.353H41.566L44.614,2.825l1.728.521L43.417,13.477l2.824.022ZM24.358,30.461s.472-3.8-6.078-3.8H7.847c-6.541,0-6.078,3.8-6.078,3.8H24.358ZM1.769,39.015s-.463,3.8,6.078,3.8H18.281c6.551,0,6.078-3.8,6.078-3.8Zm21.609-1.9a2.186,2.186,0,0,0,1.938-2.375,2.183,2.183,0,0,0-1.938-2.377H2.659A2.187,2.187,0,0,0,.72,34.739a2.19,2.19,0,0,0,1.939,2.375H23.378Z" transform="translate(-0.72 -2.825)" fill="#fff"/>
</svg>
