<svg xmlns="http://www.w3.org/2000/svg" width="38.251" height="51.002" viewBox="0 0 38.251 51.002">
  <path id="Icon_metro-microscope" data-name="Icon metro-microscope" d="M37.157,46.555a9.812,9.812,0,0,0,7.521-9.563A9.5,9.5,0,0,0,41.3,29.751a15.047,15.047,0,0,0,.193-2.322,15.827,15.827,0,0,0-6.375-12.75L38.3,11.491V8.3l3.188-3.188L38.3,1.928,35.115,5.116H31.928l-12.75,12.75L12.8,21.054v6.375l3.188,3.188h6.375l3.188-6.375,4.781-4.781a9.35,9.35,0,0,1,4.781,7.969,9.561,9.561,0,0,0-9.563,9.563H6.427V40.18H15.99a16.486,16.486,0,0,0,3.188,1.594v4.781H12.8L6.427,52.93H44.678L38.3,46.555H37.157Zm-5.23-9.563a3.188,3.188,0,1,1,3.188,3.188A3.186,3.186,0,0,1,31.928,36.992Z" transform="translate(-6.427 -1.928)" fill="#fff"/>
</svg>
