<svg xmlns="http://www.w3.org/2000/svg" width="43.339" height="43.345" viewBox="0 0 43.339 43.345">
  <g id="Icon_ionic-ios-american-football" data-name="Icon ionic-ios-american-football" transform="translate(-3.374 -3.375)">
    <path id="Path_3" data-name="Path 3" d="M37.429,11.88c-4.22-4.22-9.867-6.5-15.338-7.69l-17.9,17.9c1.188,5.481,3.47,11.118,7.69,15.338s9.867,6.5,15.338,7.69l17.9-17.9C43.931,21.748,41.649,16.1,37.429,11.88ZM33.834,27.989l-2,2,1.542,1.542a1.289,1.289,0,0,1,0,1.834h0a1.289,1.289,0,0,1-1.834,0L30,31.823l-2.011,2.021a1.433,1.433,0,0,1-.761.406,1.352,1.352,0,0,1-1.177-.375h0a1.314,1.314,0,0,1-.333-.552,1.379,1.379,0,0,1,.333-1.365l2.032-2.032L26.457,28.3l-2.011,2.011a1.386,1.386,0,0,1-.792.406,1.359,1.359,0,0,1-1.4-.729,1.129,1.129,0,0,1-.083-.2,1.352,1.352,0,0,1,.333-1.375l2.032-2.032-1.615-1.625L20.914,26.77a1.386,1.386,0,0,1-.792.406,1.359,1.359,0,0,1-1.4-.729,1.129,1.129,0,0,1-.083-.2,1.352,1.352,0,0,1,.333-1.375l2.032-2.032-1.615-1.625-2.011,2.011a1.386,1.386,0,0,1-.792.406,1.359,1.359,0,0,1-1.4-.729,1.129,1.129,0,0,1-.083-.2,1.352,1.352,0,0,1,.333-1.375L17.476,19.3l-1.542-1.542a1.289,1.289,0,0,1,0-1.834h0a1.289,1.289,0,0,1,1.834,0l1.542,1.542,2.011-2.011a1.386,1.386,0,0,1,.792-.406,1.359,1.359,0,0,1,1.4.729,1.129,1.129,0,0,1,.083.2,1.352,1.352,0,0,1-.333,1.375l-2.032,2.032,1.625,1.625L24.863,19a1.433,1.433,0,0,1,.761-.406,1.352,1.352,0,0,1,1.177.375h0a1.219,1.219,0,0,1,.333.542,1.352,1.352,0,0,1-.333,1.375l-2.042,2.042,1.625,1.625L28.4,22.539a1.386,1.386,0,0,1,.792-.406,1.359,1.359,0,0,1,1.4.729,1.129,1.129,0,0,1,.083.2,1.352,1.352,0,0,1-.333,1.375L28.3,26.468l1.625,1.625,2.011-2.011a1.45,1.45,0,0,1,.834-.417,1.327,1.327,0,0,1,1.188.479A1.413,1.413,0,0,1,33.834,27.989Z" transform="translate(0.394 0.393)" fill="#fff"/>
    <path id="Path_4" data-name="Path 4" d="M30.654,37.833a58.23,58.23,0,0,0,6.127-.3.841.841,0,0,0,.74-.74,61.775,61.775,0,0,0-.333-14.973L21.818,37.2A59.431,59.431,0,0,0,30.654,37.833Z" transform="translate(8.888 8.887)" fill="#fff"/>
    <path id="Path_5" data-name="Path 5" d="M10.544,3.375a58.411,58.411,0,0,0-6.127.3.841.841,0,0,0-.74.74,61.692,61.692,0,0,0,.333,14.962L19.38,4.011A59.431,59.431,0,0,0,10.544,3.375Z" transform="translate(0 0)" fill="#fff"/>
  </g>
</svg>
